<?xml version="1.0" standalone="no"?>
<!DOCTYPE svg PUBLIC "-//W3C//DTD SVG 20010904//EN"
 "http://www.w3.org/TR/2001/REC-SVG-20010904/DTD/svg10.dtd">
<svg version="1.0" xmlns="http://www.w3.org/2000/svg"
 width="650.000000pt" height="631.000000pt" viewBox="0 0 650.000000 631.000000" background="#fff"
 preserveAspectRatio="xMidYMid meet">

<g transform="translate(0.000000,631.000000) scale(0.100000,-0.100000)"
fill="#0b0238" stroke="none">
<path d="M0 3155 l0 -3155 3250 0 3250 0 0 3155 0 3155 -3250 0 -3250 0 0
-3155z m4911 2004 c50 -26 61 -36 77 -66 9 -16 12 -512 12 -1966 0 -1761 -2
-1952 -16 -2018 -27 -120 33 -109 -580 -109 -313 0 -543 4 -558 10 -17 6 -28
21 -35 47 -8 26 -11 674 -11 2062 0 1791 2 2026 15 2041 14 15 64 17 533 19
l519 2 44 -22z m-1816 -823 c13 -18 15 -192 15 -1253 0 -782 -4 -1241 -10
-1258 -18 -48 -33 -50 -530 -53 -256 -2 -480 0 -497 3 -25 4 -34 12 -39 33 -3
15 -14 46 -25 69 -18 41 -19 84 -19 1208 0 1307 -7 1188 74 1247 l41 29 488
-2 c481 -2 488 -2 502 -23z"/>
</g>
</svg>
